<svg width="104" height="100" viewBox="0 0 104 100" fill="none" xmlns="http://www.w3.org/2000/svg">
<path d="M6.49996 0C2.9072 0 0 2.91025 0 6.49996V60.6642C0 63.0573 1.93928 64.9998 4.33236 64.9998H13.0001V12.9999V4.33216V0H6.49996Z" fill="#4A89DC"/>
<path d="M97.4997 13H0V67.1642C0 70.754 2.9072 73.6644 6.49997 73.6644H104V19.4999L97.4997 13Z" fill="#5D9CEC"/>
<path d="M99.6644 82.3319C102.057 82.3319 104 80.3927 104 77.9996V19.4999C104 19.4999 102.058 21.6644 99.6644 21.6644H90.9999V82.3319H99.6644Z" fill="#83BEFF"/>
<path d="M97.4998 13H90.9999V25.9999H97.4998C101.09 25.9999 104 23.0896 104 19.4999C104 15.9102 101.09 13 97.4998 13Z" fill="#5D9CEC"/>
<path d="M62.8321 36.8352V19.4999H15.1582V67.1642H80.1579V36.832L62.8321 36.8352ZM75.8259 62.832H71.5C71.5 61.6354 70.5289 60.6642 69.3322 60.6642H60.6645C59.4678 60.6642 58.4999 61.6354 58.4999 62.832H36.8322V47.6643C36.8322 46.4677 35.861 45.4998 34.6646 45.4998C33.468 45.4998 32.5 46.4679 32.5 47.6643V62.832H19.4904V51.9997C20.687 51.9997 21.6582 51.0286 21.6582 49.8321V36.832C21.6582 35.6355 20.687 34.6644 19.4904 34.6644V23.8323H32.4998V38.9998C32.4998 40.1964 33.468 41.1676 34.6644 41.1676H51.9999C53.1966 41.1676 54.1645 40.1964 54.1645 38.9998C54.1645 37.8031 53.1964 36.8352 51.9999 36.8352H36.8322V23.8323H58.4999V41.1676L75.8259 41.1643V62.832Z" fill="#F5F7FA"/>
<path d="M67.1687 90.9997C67.1146 90.9997 67.0608 90.9965 67.0068 90.9934L8.50687 86.6578C7.31348 86.5721 6.41849 85.5311 6.50421 84.3377C6.59318 83.1445 7.63098 82.2495 8.82762 82.3383L67.3275 86.6704C68.5209 86.7594 69.4159 87.7972 69.3271 88.9906C69.2412 90.1301 68.2922 90.9997 67.1687 90.9997Z" fill="#E6E9ED"/>
<path d="M8.6615 99.6642C7.53798 99.6642 6.58896 98.7977 6.50324 97.6583C6.41752 96.4649 7.31251 95.4271 8.5059 95.3382L67.009 91.006C68.1992 90.9171 69.2402 91.8122 69.3292 93.0054C69.4182 94.1988 68.523 95.2366 67.3265 95.3256L8.82664 99.6579C8.76956 99.6642 8.71553 99.6642 8.6615 99.6642Z" fill="#E6E9ED"/>
<path d="M82.3321 93.1641H71.5001C70.3005 93.1641 69.3323 92.1962 69.3323 90.9997C69.3323 89.8033 70.3005 88.8319 71.5001 88.8319H82.3321C83.5287 88.8319 84.4999 89.8031 84.4999 90.9997C84.4999 92.1964 83.5287 93.1641 82.3321 93.1641Z" fill="#656D78"/>
<path d="M71.5001 90.9997C71.5001 95.7859 67.6185 99.6643 62.8321 99.6643C58.046 99.6643 54.1646 95.7857 54.1646 90.9997C54.1646 86.2136 58.046 82.332 62.8321 82.332C67.6185 82.332 71.5001 86.2136 71.5001 90.9997Z" fill="#434A54"/>
<path d="M65.8948 87.9337C67.5897 89.6253 67.5897 92.3708 65.8948 94.0623C64.2031 95.754 61.4609 95.754 59.7662 94.0623C58.0745 92.3708 58.0745 89.6253 59.7662 87.9337C61.4609 86.242 64.2031 86.242 65.8948 87.9337Z" fill="#656D78"/>
<path d="M0 6.49997V12.9999H6.49997C2.9072 12.9999 0 10.0895 0 6.49997Z" fill="#5D9CEC"/>
</svg>
