<svg width="98" height="104" viewBox="0 0 98 104" fill="none" xmlns="http://www.w3.org/2000/svg">
<path d="M16.1505 49.5992C14.9605 49.5976 13.9945 48.6332 13.9945 47.4446L14.0008 32.3674C14.0008 31.1771 14.9637 30.2144 16.1536 30.2144C17.3438 30.2144 18.3065 31.1787 18.3065 32.3674L18.3033 47.4446C18.3035 48.6346 17.3375 49.5992 16.1505 49.5992Z" fill="#E6E9ED"/>
<path d="M16.1724 75.4429C12.176 75.4429 9.69165 72.9679 9.69165 68.9837C9.69165 67.3611 10.5408 65.4605 12.2833 63.1687C12.9179 62.3353 13.5493 61.6158 13.9944 61.1266V58.1465C13.9944 56.9562 14.9604 55.9935 16.1504 55.9935C17.3407 55.9935 18.3034 56.9564 18.3034 58.1465V62.8751L17.672 63.5033C15.718 65.47 14.0007 68.0303 14.0007 68.9837C14.0007 70.5748 14.5688 71.1367 16.1724 71.1367C17.0437 71.1367 18.0919 69.3026 18.4107 68.3176C18.78 67.1874 19.9923 66.5655 21.1258 66.9348C22.256 67.3009 22.8779 68.5164 22.5086 69.6467C22.316 70.2403 20.5039 75.4429 16.1724 75.4429Z" fill="#434A54"/>
<path d="M22.6158 58.2127H9.69165V47.4446L14.0197 43.137H18.3066L22.6158 47.4446V58.2127Z" fill="#ED5564"/>
<path d="M67.8458 5.98234L59.2274 0L50.614 5.98234V101.291H67.8458V5.98234Z" fill="#F6BB42"/>
<path d="M67.8458 98.2449L62.277 92.6761L67.8458 87.1041V80.9927L62.277 75.4241L67.8458 69.8554V63.7373L62.277 58.1687L67.8458 52.5999V46.4851L62.277 40.9163L67.8458 35.3461V30.1041C67.3092 30.1152 66.7788 30.3235 66.3684 30.7338L59.2274 37.8699L52.1168 30.7559C51.7002 30.3407 51.1571 30.1307 50.614 30.1261V35.3459L56.1842 40.9161L50.614 46.4848V52.5997L56.1842 58.1685L50.614 63.737V69.8552L56.1842 75.4239L50.614 80.9925V87.1039L56.1842 92.6759L50.614 98.2447V101.291H53.6588L59.2274 95.7224L64.8026 101.291H67.8458V98.2449ZM53.6526 49.5422L59.2274 43.9623L64.8089 49.5422L59.2274 55.1251L53.6526 49.5422ZM53.6526 66.796L59.2274 61.2149L64.8089 66.796L59.2274 72.3743L53.6526 66.796ZM53.6526 84.0484L59.2274 78.4669L64.8089 84.0484L59.2274 89.6295L53.6526 84.0484Z" fill="#E5A535"/>
<path d="M91.5346 32.3674C85.7892 32.3674 0 32.3674 0 32.3674L5.38247 19.4448H98C98 19.4448 98 32.3674 91.5346 32.3674Z" fill="#FFCE54"/>
<path d="M39.3124 22.8761L35.8811 19.4446H30.0883L26.6568 22.8761L23.2252 19.4448H17.4352L14.0039 22.8761L10.5726 19.4448H5.54025C5.49297 20.0477 5.70128 20.6649 6.16215 21.1258L10.9575 25.9227L6.17791 30.7021C5.72007 31.1583 5.515 31.7691 5.55278 32.3674C7.00508 32.3674 8.70347 32.3674 10.6039 32.3674L14.0037 28.969L17.4035 32.3674C19.2599 32.3674 21.2203 32.3674 23.2596 32.3674L26.6564 28.969L30.0564 32.3674C31.9726 32.3674 33.9298 32.3674 35.9122 32.3674L39.312 28.969L42.712 32.3674C44.3914 32.3674 46.0771 32.3674 47.7597 32.3674C47.8007 31.7691 47.5924 31.1583 47.1378 30.7021L42.3585 25.9227L47.1696 21.11C47.6274 20.6538 47.8325 20.043 47.7947 19.4448H42.7438L39.3124 22.8761ZM20.3303 29.2025L17.0503 25.9227L20.3303 22.6411L23.6136 25.9227L20.3303 29.2025ZM32.986 29.2025L29.703 25.9227L32.986 22.6411L36.266 25.9227L32.986 29.2025Z" fill="#F6BB42"/>
<path d="M67.8458 32.3674H42.7124L50.614 19.4448H67.8458V32.3674Z" fill="#4FC2E9"/>
<path d="M61.386 19.4454H57.0737V32.368H61.386V19.4454Z" fill="#3BAFDA"/>
<path d="M89.3822 15.1372H76.4641V36.6752H89.3822V15.1372Z" fill="#E6E9ED"/>
<path d="M91.5347 103.444H26.9218C25.7315 103.444 24.7688 102.478 24.7688 101.291C24.7688 100.101 25.7317 99.1383 26.9218 99.1383H91.5347C92.728 99.1383 93.6941 100.101 93.6941 101.291C93.6939 102.478 92.728 103.444 91.5347 103.444Z" fill="#434A54"/>
</svg>
