<svg width="104" height="57" viewBox="0 0 104 57" fill="none" xmlns="http://www.w3.org/2000/svg">
<path d="M60.6646 30.6007V56.8291H0V30.6007C0 13.7009 13.5809 0 30.3339 0C47.0853 0.000204928 60.6646 13.7011 60.6646 30.6007Z" fill="#5D9CEC"/>
<path d="M45.5001 30.6007C45.5001 39.0522 38.7098 45.9044 30.3339 45.9044C21.9566 45.9044 15.1661 39.0522 15.1661 30.6007C15.1661 22.1509 21.9566 15.3004 30.3339 15.3004C38.7098 15.3006 45.5001 22.1511 45.5001 30.6007Z" fill="#F5F7FA"/>
<path d="M47.6139 56.8291H13.1032C11.9066 56.8291 10.937 55.8524 10.937 54.6454C10.937 53.4386 11.9066 52.4621 13.1032 52.4621H47.6139C48.8103 52.4621 49.7801 53.4388 49.7801 54.6454C49.7799 55.8526 48.8103 56.8291 47.6139 56.8291Z" fill="#4A89DC"/>
<path d="M30.3593 6.5577C30.3577 6.5577 30.3561 6.5577 30.353 6.5577C30.3467 6.5577 30.3405 6.5577 30.334 6.5577C17.1705 6.5577 6.5 17.3226 6.5 30.6009C6.5 31.1678 6.52072 31.7297 6.5587 32.2836C6.52214 32.4469 6.5 32.6166 6.5 32.7896C6.5 33.9935 7.46954 34.9733 8.66619 34.9733C9.86283 34.9733 10.8338 33.9935 10.8338 32.7896H10.9528C10.875 32.066 10.8338 31.3374 10.8338 30.6009C10.8338 25.3466 12.8619 20.4059 16.545 16.6902C20.2282 12.9744 25.1238 10.9284 30.3337 10.9284C30.3417 10.9284 30.3496 10.9284 30.3591 10.9284C31.5556 10.9284 32.5253 9.95029 32.5253 8.74306C32.5253 7.53582 31.5558 6.5577 30.3593 6.5577Z" fill="#4A89DC"/>
<path d="M101.834 43.7145H60.6635V56.8293H101.834V43.7145Z" fill="#FFCE54"/>
<path d="M67.1647 52.4623C65.9713 52.4623 65.0001 53.439 65.0001 54.6456V56.8293H69.3357V54.6456C69.3357 53.4386 68.3646 52.4623 67.1647 52.4623Z" fill="#F6BB42"/>
<path d="M75.8356 52.4623C74.6359 52.4623 73.6646 53.439 73.6646 54.6456V56.8293H78V54.6456C78 53.4386 77.0288 52.4623 75.8356 52.4623Z" fill="#F6BB42"/>
<path d="M84.4999 52.4623C83.3032 52.4623 82.3353 53.439 82.3353 54.6456V56.8293H86.6645V54.6456C86.6645 53.4386 85.6965 52.4623 84.4999 52.4623Z" fill="#F6BB42"/>
<path d="M93.1646 52.4623C91.9712 52.4623 91 53.439 91 54.6456V56.8293H95.3354V54.6456C95.3354 53.4386 94.3645 52.4623 93.1646 52.4623Z" fill="#F6BB42"/>
<path d="M104 56.8291V41.5306C104 40.3234 103.029 39.3469 101.835 39.3469C100.636 39.3469 99.6644 40.3236 99.6644 41.5306V56.8291H104Z" fill="#434A54"/>
<path d="M34.6662 30.6007C34.6662 33.0133 32.7269 34.9731 30.3338 34.9731C27.9407 34.9731 26 33.0135 26 30.6007C26 28.1865 27.9407 26.2302 30.3338 26.2302C32.7269 26.2304 34.6662 28.1867 34.6662 30.6007Z" fill="#5D9CEC"/>
</svg>
