<svg width="111" height="111" viewBox="0 0 111 111" fill="none" xmlns="http://www.w3.org/2000/svg">
<path d="M98.7826 68.3316C98.7826 91.8967 79.4044 111 55.5 111C31.5955 111 12.2173 91.8967 12.2173 68.3316C12.2173 49.1583 40.8703 14.18 51.5504 1.80809C53.6316 -0.602695 57.3688 -0.602695 59.4498 1.80809C70.1299 14.18 98.7826 49.1583 98.7826 68.3316Z" fill="#9CD6F4"/>
<path d="M59.4498 1.80809C58.4092 0.602695 56.9545 0 55.5 0V111C79.4045 111 98.7826 91.8967 98.7826 68.3316C98.7826 49.1583 70.1299 14.18 59.4498 1.80809Z" fill="#7FA6FB"/>
<path d="M66.7238 83.8436C64.1207 86.4467 60.6596 87.8803 56.9781 87.8803C53.2969 87.8803 49.8358 86.4467 47.2327 83.8436C45.5026 82.1135 44.2918 80.0015 43.6724 77.7026C44.2459 78.1288 44.926 78.3458 45.6078 78.3458C46.4401 78.3458 47.2724 78.0282 47.9074 77.3932C49.1771 76.1234 49.1771 74.0643 47.9074 72.7943L42.2435 67.1307C40.9738 65.8609 38.9146 65.8609 37.6446 67.1307L31.981 72.7943C30.711 74.0641 30.711 76.1232 31.9808 77.3932C33.2508 78.6632 35.3097 78.6632 36.5797 77.3932L36.9086 77.0643C37.5345 81.3574 39.5125 85.3215 42.6338 88.4423C46.4652 92.2739 51.5595 94.384 56.9781 94.384C62.3968 94.384 67.4911 92.2739 71.3227 88.4423C72.5927 87.1725 72.5927 85.1134 71.3227 83.8434C70.0529 82.5738 67.9936 82.5738 66.7238 83.8436Z" fill="#FBF4F4"/>
<path d="M71.3227 83.8436C70.0529 82.5738 67.9938 82.5738 66.7238 83.8436C64.1207 86.4467 60.6596 87.8804 56.9781 87.8804C56.4808 87.8804 55.9878 87.852 55.5 87.8001V94.3311C55.9895 94.3661 56.4825 94.3843 56.9781 94.3843C62.3967 94.3843 67.491 92.2742 71.3227 88.4425C72.5927 87.1727 72.5927 85.1136 71.3227 83.8436Z" fill="#E2E9EE"/>
<path d="M79.019 65.3708C77.749 64.1008 75.6901 64.1008 74.4201 65.3708L74.0912 65.6997C73.4653 61.4066 71.487 57.4425 68.366 54.3217C60.4566 46.4121 47.5867 46.4123 39.6771 54.3217C38.4071 55.5915 38.4071 57.6504 39.6769 58.9206C40.9469 60.1906 43.0058 60.1906 44.2758 58.9206C49.6493 53.5471 58.3929 53.5469 63.7669 58.9206C65.4969 60.6507 66.7077 62.7629 67.3271 65.0618C66.0541 64.1153 64.2475 64.2159 63.0922 65.3712C61.8224 66.641 61.8224 68.7001 63.0924 69.9701L68.756 75.6337C69.391 76.2687 70.2233 76.5861 71.0554 76.5861C71.8877 76.5861 72.72 76.2685 73.355 75.6337L79.0186 69.9701C80.289 68.6999 80.289 66.6408 79.019 65.3708Z" fill="#FBF4F4"/>
<path d="M79.0189 65.3708C77.7489 64.1008 75.69 64.1008 74.42 65.3708L74.0911 65.6997C73.4652 61.4066 71.487 57.4425 68.3659 54.3217C64.7866 50.7424 60.1912 48.7886 55.4997 48.4487V54.9719C58.5212 55.2951 61.4558 56.6094 63.767 58.9204C65.4971 60.6505 66.7079 62.7627 67.3273 65.0616C66.0542 64.1151 64.2477 64.2157 63.0924 65.371C61.8226 66.6408 61.8226 68.6999 63.0926 69.9699L68.7562 75.6335C69.3912 76.2685 70.2235 76.5859 71.0555 76.5859C71.8878 76.5859 72.7201 76.2683 73.3551 75.6335L79.0187 69.9699C80.2889 68.6999 80.2889 66.6408 79.0189 65.3708Z" fill="#E2E9EE"/>
</svg>
