<svg width="104" height="104" viewBox="0 0 104 104" fill="none" xmlns="http://www.w3.org/2000/svg">
<g clip-path="url(#clip0)">
<path d="M25.4191 58.6942C24.5521 58.6942 23.8497 57.9916 23.8497 57.1248V27.3969C23.8497 16.6883 32.5618 7.97611 43.2705 7.97611H52.0585C52.9254 7.97611 53.6279 8.67872 53.6279 9.54545C53.6279 10.4122 52.9252 11.1148 52.0585 11.1148H43.2705C34.2928 11.1148 26.9886 18.4188 26.9886 27.3967V57.1244C26.9886 57.9916 26.286 58.6942 25.4191 58.6942Z" fill="#454045"/>
<path d="M84.9278 14.1312C84.7691 14.1312 84.608 14.107 84.4488 14.056L69.5 9.269C68.6745 9.00473 68.2195 8.12114 68.484 7.29584C68.7483 6.47034 69.6312 6.01494 70.4571 6.27981L85.4059 11.0669C86.2314 11.3311 86.6864 12.2147 86.422 13.04C86.2087 13.7065 85.5918 14.1312 84.9278 14.1312Z" fill="#EADFDA"/>
<path d="M74.88 104H49.0073C47.5714 104 46.4075 102.836 46.4075 101.4V93.6297H77.48V101.4C77.4798 102.836 76.3159 104 74.88 104Z" fill="#544F57"/>
<path d="M73.6545 93.6297V101.4C73.6545 102.836 72.4906 104 71.0547 104H74.8801C76.316 104 77.4799 102.836 77.4799 101.4V93.6297H73.6545Z" fill="#454045"/>
<path d="M66.5914 17.9386V11.8294H56.6785V17.9386C56.6785 18.8104 56.0571 19.5632 55.1987 19.7159C47.287 21.1232 41.279 28.0327 41.279 36.3488V92.5133C41.279 95.4838 43.687 97.8918 46.6575 97.8918H76.6126C79.5831 97.8918 81.9911 95.4838 81.9911 92.5133V36.3486C81.9911 28.0325 75.9831 21.1232 68.0714 19.7157C67.2128 19.5632 66.5914 18.8104 66.5914 17.9386Z" fill="#DA4A54"/>
<path d="M68.0713 19.7159C67.2129 19.5632 66.5915 18.8106 66.5915 17.9386V11.8294H62.7102V19.6434C62.7102 20.5152 63.3316 21.268 64.19 21.4207C72.1017 22.828 78.1097 29.7375 78.1097 38.0536V94.2183C78.1097 95.6385 77.5582 96.9294 76.659 97.8908C79.608 97.8656 81.991 95.4683 81.991 92.5133V36.3486C81.991 28.0325 75.983 21.1232 68.0713 19.7159Z" fill="#D82E3D"/>
<path d="M61.6348 5.82562V1.5015C61.6348 0.672344 62.307 0 63.1363 0H85.7297C86.5262 0 87.1719 0.645734 87.1719 1.44219V3.1397C87.1719 3.7633 86.7711 4.3162 86.1786 4.51019L61.9438 12.4479L61.6348 5.82562Z" fill="#544F57"/>
<path d="M85.7297 0H80.0556V6.51564L86.1786 4.51019C86.7711 4.3162 87.1719 3.7633 87.1719 3.1397V1.44219C87.1717 0.645734 86.5261 0 85.7297 0V0Z" fill="#454045"/>
<path d="M57.9666 12.3484H50.5415C49.8769 12.3484 49.338 11.8095 49.338 11.1449V7.94625C49.338 7.28163 49.8769 6.74274 50.5415 6.74274H57.9666V12.3484Z" fill="#544F57"/>
<path d="M61.6348 15.1836C64.7486 15.1836 67.2728 12.6594 67.2728 9.54565C67.2728 6.43191 64.7486 3.90771 61.6348 3.90771C58.5211 3.90771 55.9969 6.43191 55.9969 9.54565C55.9969 12.6594 58.5211 15.1836 61.6348 15.1836Z" fill="#F6F1F1"/>
<path d="M61.6349 3.90752C60.9926 3.90752 60.3759 4.0164 59.8007 4.21424C62.0137 4.97555 63.6046 7.07404 63.6046 9.54546C63.6046 12.0169 62.0137 14.1154 59.8007 14.8767C60.3759 15.0745 60.9924 15.1834 61.6349 15.1834C64.7486 15.1834 67.2728 12.6592 67.2728 9.54546C67.273 6.43175 64.7488 3.90752 61.6349 3.90752Z" fill="#EADFDA"/>
<path d="M29.9674 60.6584H20.8706C20.2473 60.6584 19.7419 60.153 19.7419 59.5296V57.0347C19.7419 55.9286 20.6385 55.032 21.7445 55.032H29.0935C30.1996 55.032 31.0962 55.9286 31.0962 57.0347V59.5296C31.0962 60.153 30.5908 60.6584 29.9674 60.6584Z" fill="#DA4A54"/>
<path d="M29.0936 55.0322H24.9222C26.0282 55.0322 26.9246 55.9288 26.9246 57.0349V59.5298C26.9246 60.1532 26.4192 60.6586 25.796 60.6586H29.9674C30.5908 60.6586 31.0962 60.1532 31.0962 59.5298V57.0349C31.0962 55.9288 30.1996 55.0322 29.0936 55.0322Z" fill="#D82E3D"/>
<path d="M29.8206 60.6584H21.0179L16.8547 91.5029C16.6694 92.8755 17.4884 94.1318 18.5686 94.1318H32.27C33.3503 94.1318 34.1693 92.8755 33.984 91.5029L29.8206 60.6584Z" fill="#544F57"/>
<path d="M33.9837 91.5029L29.8205 60.6584H25.6491L29.8124 91.5029C29.9976 92.8755 29.1786 94.1318 28.0984 94.1318H32.2698C33.3498 94.1318 34.169 92.8755 33.9837 91.5029Z" fill="#454045"/>
<path d="M83.7043 40.0879H39.5653C38.6983 40.0879 37.9959 39.3853 37.9959 38.5186C37.9959 37.6517 38.6985 36.9493 39.5653 36.9493H83.7043C84.5712 36.9493 85.2736 37.6519 85.2736 38.5186C85.2738 39.3853 84.5712 40.0879 83.7043 40.0879Z" fill="#454045"/>
<path d="M83.7043 86.3318H39.5653C38.6983 86.3318 37.9959 85.6292 37.9959 84.7624C37.9959 83.8957 38.6985 83.1931 39.5653 83.1931H83.7043C84.5712 83.1931 85.2736 83.8957 85.2736 84.7624C85.2736 85.6292 84.5712 86.3318 83.7043 86.3318Z" fill="#454045"/>
<path d="M71.5792 76.53H51.6906C50.7798 76.53 50.0414 75.7916 50.0414 74.8808V48.4C50.0414 47.4892 50.7798 46.7508 51.6906 46.7508H71.5792C72.49 46.7508 73.2284 47.4892 73.2284 48.4V74.8808C73.2282 75.7916 72.49 76.53 71.5792 76.53Z" fill="#F6F1F1"/>
<path d="M71.5792 46.751H67.9698C68.8807 46.751 69.619 47.4894 69.619 48.4002V74.881C69.619 75.7918 68.8807 76.5302 67.9698 76.5302H71.5792C72.49 76.5302 73.2284 75.7918 73.2284 74.881V48.4C73.2284 47.4894 72.49 46.751 71.5792 46.751Z" fill="#EADFDA"/>
<path d="M66.7675 54.3546H56.5024C55.6354 54.3546 54.933 53.652 54.933 52.7853C54.933 51.9183 55.6356 51.2159 56.5024 51.2159H66.7675C67.6344 51.2159 68.3368 51.9185 68.3368 52.7853C68.3368 53.652 67.6342 54.3546 66.7675 54.3546Z" fill="#454045"/>
<path d="M66.7675 60.2582H56.5024C55.6354 60.2582 54.933 59.5556 54.933 58.6889C54.933 57.8222 55.6356 57.1196 56.5024 57.1196H66.7675C67.6344 57.1196 68.3368 57.8222 68.3368 58.6889C68.3368 59.5556 67.6342 60.2582 66.7675 60.2582Z" fill="#454045"/>
<path d="M66.7675 66.1617H56.5024C55.6354 66.1617 54.933 65.4591 54.933 64.5923C54.933 63.7256 55.6356 63.023 56.5024 63.023H66.7675C67.6344 63.023 68.3368 63.7256 68.3368 64.5923C68.3368 65.4591 67.6342 66.1617 66.7675 66.1617Z" fill="#454045"/>
<path d="M66.7675 72.0653H56.5024C55.6354 72.0653 54.933 71.3627 54.933 70.496C54.933 69.6292 55.6356 68.9266 56.5024 68.9266H66.7675C67.6344 68.9266 68.3368 69.6292 68.3368 70.496C68.3368 71.3627 67.6342 72.0653 66.7675 72.0653Z" fill="#454045"/>
</g>
<defs>
<clipPath id="clip0">
<rect width="104" height="104" fill="white"/>
</clipPath>
</defs>
</svg>
