<svg width="48" height="48" viewBox="0 0 48 48" fill="none" xmlns="http://www.w3.org/2000/svg">
<g clip-path="url(#clip0)">
<path d="M3.00003 3.26597C-0.771968 7.18398 3.23057e-05 11.346 3.23057e-05 23.99C3.23057e-05 34.49 -1.83197 45.016 7.75603 47.494C10.75 48.264 37.278 48.264 40.268 47.49C44.26 46.46 47.508 43.222 47.952 37.576C48.014 36.788 48.014 11.206 47.95 10.402C47.478 4.38797 43.776 0.921971 38.898 0.219971C37.78 0.0579708 37.556 0.00997077 31.82 -2.92361e-05C11.474 0.00997077 7.01403 -0.89603 3.00003 3.26597Z" fill="url(#paint0_linear)"/>
<path d="M23.996 6.27797C16.734 6.27797 9.838 5.63197 7.20399 12.392C6.11599 15.184 6.274 18.81 6.274 24.002C6.274 28.558 6.12799 32.84 7.20399 35.61C9.832 42.374 16.784 41.726 23.992 41.726C30.946 41.726 38.116 42.45 40.782 35.61C41.872 32.79 41.712 29.218 41.712 24.002C41.712 17.078 42.094 12.608 38.736 9.25197C35.336 5.85197 30.738 6.27797 23.988 6.27797H23.996ZM22.408 9.47197C37.556 9.44797 39.484 7.76397 38.42 31.158C38.042 39.432 31.742 38.524 23.998 38.524C9.87799 38.524 9.472 38.12 9.472 23.994C9.472 9.70397 10.592 9.47997 22.408 9.46797V9.47197ZM33.456 12.414C32.282 12.414 31.33 13.366 31.33 14.54C31.33 15.714 32.282 16.666 33.456 16.666C34.63 16.666 35.582 15.714 35.582 14.54C35.582 13.366 34.63 12.414 33.456 12.414ZM23.996 14.9C18.97 14.9 14.896 18.976 14.896 24.002C14.896 29.028 18.97 33.102 23.996 33.102C29.022 33.102 33.094 29.028 33.094 24.002C33.094 18.976 29.022 14.9 23.996 14.9ZM23.996 18.094C31.806 18.094 31.816 29.91 23.996 29.91C16.188 29.91 16.176 18.094 23.996 18.094Z" fill="white"/>
</g>
<defs>
<linearGradient id="paint0_linear" x1="3.09207" y1="44.9342" x2="47.703" y2="6.32395" gradientUnits="userSpaceOnUse">
<stop stop-color="#FFDD55"/>
<stop offset="0.5" stop-color="#FF543E"/>
<stop offset="1" stop-color="#C837AB"/>
</linearGradient>
<clipPath id="clip0">
<rect width="48" height="48" fill="white"/>
</clipPath>
</defs>
</svg>
