<svg width="114" height="92" viewBox="0 0 114 92" fill="none" xmlns="http://www.w3.org/2000/svg">
<path d="M71.2493 70.3605V51.3582H59.3757V32.3577H30.8722H2.37256V51.3582V70.3605V89.3626H30.8722H59.3757H87.8751V70.3605H71.2493Z" fill="#EC5564"/>
<path d="M73.6256 67.9879V48.9838H61.752V29.9853H33.2521H28.4999H0V48.9838V53.738V67.9879V72.7332V91.7353H28.4999H33.2521H56.9996H61.752H90.2515V67.9879H73.6256ZM68.8767 53.738V67.9879H61.752H56.9996H45.1257V53.738H61.752H68.8767ZM16.6225 53.738H28.4997H33.2519H40.3768V67.9879H33.2519H28.4997H16.6225V53.738ZM33.2521 34.7339H56.9996V48.9838H45.1257H40.3771H33.2521V34.7339ZM4.74891 34.7339H28.4999V48.9838H16.6225H11.8738H4.74891V34.7339ZM4.74891 53.738H11.8738V67.9879H4.74891V53.738ZM28.4997 86.9828H4.74891V72.7332H11.8738H16.6227H28.4999L28.4997 86.9828ZM56.9996 86.9828H33.2521V72.7332H40.3771H45.1257H56.9996V86.9828ZM85.4992 86.9828H61.752V72.7332H73.6256H85.4992V86.9828Z" fill="#D94452"/>
<path d="M78.6947 32.0656C74.5546 32.0656 70.4284 30.3123 67.3668 27.2543C63.721 23.6049 61.8564 16.4243 61.2232 13.5055C60.6875 11.0319 60.3535 8.57555 60.2838 6.58919C60.1863 3.8685 60.569 2.22638 61.5327 1.26649C62.4057 0.389656 63.8112 0 66.0901 0C69.068 0 73.2812 0.688911 77.0838 1.79153C80.3818 2.75164 84.8695 4.44965 87.5203 7.10065C90.4149 9.99501 92.1163 13.756 92.3144 17.6837C92.5161 21.7018 91.1281 25.414 88.4005 28.1378C85.868 30.6706 82.4205 32.0656 78.6947 32.0656Z" fill="#E5E8EC"/>
<path d="M91.7612 34.8522L81.6862 24.7772C80.7573 23.8483 80.7573 22.3453 81.6862 21.42C82.6116 20.491 84.1143 20.491 85.0433 21.42L95.122 31.4949C96.0474 32.4239 92.2274 35.3184 91.7612 34.8522Z" fill="#CCD1D9"/>
<path d="M111.915 41.5701L96.7991 26.4576L86.7239 36.5326L101.837 51.6504C103.186 52.9932 104.974 53.7378 106.874 53.7378C108.78 53.7378 110.569 52.9932 111.915 51.6504C114.695 48.8689 114.695 44.35 111.915 41.5701Z" fill="#FECD57"/>
</svg>
