<svg width="94" height="97" viewBox="0 0 94 97" fill="none" xmlns="http://www.w3.org/2000/svg">
<path d="M70.8313 13.2857L58.8311 1.17928L57.6591 0H56.0008H3.99903H0V4.03442V92.8146V96.8519H3.99903H68.0013H72.0033V92.8146V16.1411V14.4681L70.8313 13.2857Z" fill="#E5E8EC"/>
<path d="M36.0008 76.6766H14.0012C12.8937 76.6766 12.0002 77.5752 12.0002 78.6924C12.0002 79.8096 12.8937 80.7078 14.0012 80.7078H36.0008C37.1054 80.7078 38.0019 79.8096 38.0019 78.6924C38.0019 77.5752 37.1052 76.6766 36.0008 76.6766Z" fill="#434A54"/>
<path d="M14.0012 56.4952H57.9989C59.1063 56.4952 60.003 55.5967 60.003 54.4795C60.003 53.3622 59.1065 52.4637 57.9989 52.4637H14.0012C12.8937 52.4637 12.0002 53.3622 12.0002 54.4795C12.0002 55.5967 12.8937 56.4952 14.0012 56.4952Z" fill="#434A54"/>
<path d="M57.9989 64.5701H14.0012C12.8937 64.5701 12.0002 65.4687 12.0002 66.5859C12.0002 67.7031 12.8937 68.6017 14.0012 68.6017H57.9989C59.1063 68.6017 60.003 67.7031 60.003 66.5859C60.003 65.4687 59.1063 64.5701 57.9989 64.5701Z" fill="#434A54"/>
<path d="M83.3471 66.5445L78.0033 85.378L86.0015 90.7576L93.9998 85.378L88.6557 66.5445H83.3471Z" fill="#E5E8EC"/>
<path d="M86.0015 12.0622C81.5834 12.0622 78.0033 15.677 78.0033 20.1341V74.6133H94V20.1341C93.9998 15.677 90.4196 12.0622 86.0015 12.0622Z" fill="#656D78"/>
<path d="M37.9664 22.1943C37.4097 22.1943 32.7632 15.5174 28.0169 15.5174C23.3322 15.5174 18.5478 22.1943 17.9999 22.1943C16.8953 22.1943 15.999 23.0959 15.999 24.2101V38.3352C15.999 39.4496 16.8955 40.3538 17.9999 40.3538H37.9662C39.0708 40.3538 39.9671 39.4494 39.9671 38.3352V24.2101C39.9675 23.0959 39.071 22.1943 37.9664 22.1943Z" fill="#ED5564"/>
<path d="M72.0032 14.4681H57.6591V0L72.0032 14.4681Z" fill="#CCD1D9"/>
<path d="M43.4159 26.8199L29.4264 12.6976C28.6471 11.9084 27.3786 11.9084 26.5991 12.6946C26.5933 12.7004 26.5903 12.7035 26.5875 12.7093C26.5817 12.7124 26.5787 12.7152 26.5758 12.7182L12.5861 26.8199C11.804 27.606 11.804 28.886 12.5861 29.6721C12.9757 30.0683 13.4884 30.2633 14.001 30.2633C14.5109 30.2633 15.0235 30.0683 15.4132 29.6752L28.0112 16.9774L40.5856 29.6721C40.9753 30.0683 41.4879 30.2633 42.0008 30.2633C42.5136 30.2633 43.0233 30.0683 43.4129 29.6752C44.1952 28.886 44.1952 27.6091 43.4159 26.8199Z" fill="#434A54"/>
<path d="M30.015 40.354V34.3007C30.015 33.1864 29.1213 32.2821 28.0169 32.2821C26.9122 32.2821 26.0157 33.1865 26.0157 34.3007V40.354H30.015Z" fill="#434A54"/>
</svg>
