<svg width="16" height="16" viewBox="0 0 16 16" fill="none" xmlns="http://www.w3.org/2000/svg">
<path d="M8.002 0H7.998C3.587 0 0 3.588 0 8C0 9.75 0.564 11.372 1.523 12.689L0.526 15.661L3.601 14.678C4.866 15.516 6.375 16 8.002 16C12.413 16 16 12.411 16 8C16 3.589 12.413 0 8.002 0Z" fill="#4CAF50"/>
<path d="M12.657 11.2972C12.464 11.8422 11.698 12.2942 11.087 12.4262C10.669 12.5152 10.123 12.5862 8.28505 11.8242C5.93405 10.8502 4.42005 8.46118 4.30205 8.30618C4.18905 8.15118 3.35205 7.04118 3.35205 5.89318C3.35205 4.74518 3.93505 4.18618 4.17005 3.94618C4.36305 3.74918 4.68205 3.65918 4.98805 3.65918C5.08705 3.65918 5.17605 3.66418 5.25605 3.66818C5.49105 3.67818 5.60905 3.69218 5.76405 4.06318C5.95705 4.52818 6.42705 5.67618 6.48305 5.79418C6.54005 5.91218 6.59705 6.07218 6.51705 6.22718C6.44205 6.38718 6.37605 6.45818 6.25805 6.59418C6.14005 6.73018 6.02805 6.83418 5.91005 6.98018C5.80205 7.10718 5.68005 7.24318 5.81605 7.47818C5.95205 7.70818 6.42205 8.47518 7.11405 9.09118C8.00705 9.88618 8.73105 10.1402 8.99005 10.2482C9.18305 10.3282 9.41305 10.3092 9.55405 10.1592C9.73305 9.96618 9.95405 9.64618 10.179 9.33118C10.339 9.10518 10.541 9.07718 10.753 9.15718C10.969 9.23218 12.1121 9.79718 12.347 9.91418C12.582 10.0322 12.737 10.0882 12.794 10.1872C12.85 10.2862 12.85 10.7512 12.657 11.2972Z" fill="#FAFAFA"/>
</svg>
